<?xml version="1.0" encoding="UTF-8"?>
<svg width="1200pt" height="1200pt" version="1.1" viewBox="0 0 1200 1200" xmlns="http://www.w3.org/2000/svg">
 <path d="m269.38 788.93v70.848c0 39.133 31.719 70.848 70.852 70.848h519.55c39.133 0 70.848-31.715 70.848-70.848v-70.848c0-13.035-10.578-23.617-23.613-23.617-13.039 0-23.617 10.582-23.617 23.617v70.848c0 13.039-10.578 23.617-23.617 23.617h-519.55c-13.039 0-23.617-10.578-23.617-23.617v-70.848c0-13.035-10.582-23.617-23.617-23.617-13.035 0-23.617 10.582-23.617 23.617zm307.01-18.324-100.16-116.86c-8.4805-9.8945-23.402-11.051-33.301-2.5469-9.8945 8.4766-11.027 23.402-2.5508 33.297 0 0 63.859 74.484 105.82 123.46 13.461 15.703 33.109 24.75 53.797 24.75s40.34-9.0469 53.801-24.75c41.965-48.98 105.82-123.46 105.82-123.46 8.4805-9.8945 7.3477-24.82-2.5508-33.297-9.8945-8.5039-24.82-7.3477-33.297 2.5469l-100.16 116.86v-481.06c0-13.035-10.578-23.613-23.617-23.613-13.035 0-23.613 10.578-23.613 23.613z" fill="#303338" fill-rule="evenodd"/>
</svg>
