<svg width="143" height="143" viewBox="0 0 143 143" fill="none" xmlns="http://www.w3.org/2000/svg">
<path d="M78.5 50.5L95 67M72.5 54.5V95M49 21.5L66.5 39M5.75942 78.2652L66.9533 137.259C70.1342 140.326 75.1987 140.233 78.2652 137.052L137.259 75.8583C140.326 72.6775 140.233 67.613 137.052 64.5465L75.8583 5.55238C72.6775 2.48588 67.613 2.57858 64.5465 5.75942L5.55238 66.9533C2.48588 70.1342 2.57858 75.1987 5.75942 78.2652ZM81 45.5C81 50.1944 77.1944 54 72.5 54C67.8056 54 64 50.1944 64 45.5C64 40.8056 67.8056 37 72.5 37C77.1944 37 81 40.8056 81 45.5ZM81 102.5C81 107.194 77.1944 111 72.5 111C67.8056 111 64 107.194 64 102.5C64 97.8056 67.8056 94 72.5 94C77.1944 94 81 97.8056 81 102.5ZM110 73.5C110 78.1944 106.194 82 101.5 82C96.8056 82 93 78.1944 93 73.5C93 68.8056 96.8056 65 101.5 65C106.194 65 110 68.8056 110 73.5Z" stroke="#6C8EAD" stroke-width="6"/>
</svg>
