<svg width="465" height="465" viewBox="0 0 465 465" fill="none" xmlns="http://www.w3.org/2000/svg">
<path d="M465 232.5C465 360.906 360.906 465 232.5 465C104.094 465 0 360.906 0 232.5C0 104.094 104.094 0 232.5 0C360.906 0 465 104.094 465 232.5Z" fill="#F1563A"/>
<g clip-path="url(#clip0_136_154)">
<path d="M402.361 217.317L248.675 63.6384C239.83 54.7875 225.475 54.7875 216.618 63.6384L184.704 95.5522L225.189 136.036C234.596 132.857 245.385 134.99 252.884 142.489C260.419 150.037 262.536 160.917 259.28 170.355L298.296 209.372C307.735 206.12 318.627 208.224 326.166 215.775C336.703 226.308 336.703 243.378 326.166 253.918C315.627 264.459 298.556 264.459 288.011 253.918C280.085 245.984 278.128 234.345 282.14 224.581L245.755 188.196L245.75 283.946C248.388 285.251 250.797 286.973 252.884 289.048C263.42 299.58 263.42 316.652 252.884 327.2C242.344 337.735 225.266 337.735 214.741 327.2C204.205 316.652 204.205 299.582 214.741 289.049C217.266 286.523 220.267 284.522 223.57 283.163V186.519C220.262 185.169 217.26 183.167 214.741 180.633C206.758 172.661 204.839 160.947 208.929 151.145L169.021 111.233L63.6412 216.606C54.7862 225.465 54.7862 239.821 63.6412 248.674L217.33 402.355C226.179 411.207 240.531 411.207 249.39 402.355L402.36 249.387C411.212 240.532 411.214 226.168 402.361 217.317Z" fill="white"/>
</g>
<defs>
<clipPath id="clip0_136_154">
<rect width="352" height="352" fill="white" transform="translate(57 57)"/>
</clipPath>
</defs>
</svg>
