<svg width="305" height="222" viewBox="0 0 305 222" fill="none" xmlns="http://www.w3.org/2000/svg">
<path d="M244 79.1051C244 81.2978 243.612 83.4689 242.858 85.4947C242.104 87.5204 240.999 89.3611 239.607 90.9115C238.214 92.4619 236.56 93.6918 234.74 94.5309C232.92 95.37 230.97 95.8019 229 95.8019C227.03 95.8019 225.08 95.37 223.26 94.5309C221.44 93.6918 219.786 92.4619 218.393 90.9115C217.001 89.3611 215.896 87.5204 215.142 85.4947C214.388 83.4689 214 81.2978 214 79.1051" stroke="#6C8EAD" stroke-width="10"/>
<line x1="214" y1="80.1488" x2="214" y2="5.00002" stroke="#6C8EAD" stroke-width="10"/>
<line x1="244" y1="79.1052" x2="244" y2="5.01047" stroke="#6C8EAD" stroke-width="10"/>
<path d="M263 78.0616C263 82.9952 262.121 87.8805 260.412 92.4385C258.703 96.9965 256.199 101.138 253.042 104.627C249.884 108.115 246.136 110.882 242.011 112.77C237.886 114.658 233.465 115.63 229 115.63C224.535 115.63 220.114 114.658 215.989 112.77C211.864 110.882 208.116 108.115 204.958 104.627C201.801 101.138 199.297 96.9965 197.588 92.4385C195.879 87.8805 195 82.9952 195 78.0616" stroke="#6C8EAD" stroke-width="10"/>
<line x1="195" y1="79.1052" x2="195" y2="5.01047" stroke="#6C8EAD" stroke-width="10"/>
<line x1="263" y1="79.1052" x2="263" y2="5.01047" stroke="#6C8EAD" stroke-width="10"/>
<line x1="176" y1="78.0616" x2="176" y2="5.01048" stroke="#6C8EAD" stroke-width="10"/>
<path d="M176 78.0616C176 109.891 201.5 136.503 224 136.503" stroke="#6C8EAD" stroke-width="10"/>
<line x1="219" y1="221.039" x2="219" y2="131.285" stroke="#6C8EAD" stroke-width="10"/>
<line x1="157" y1="78.0616" x2="157" y2="5.01048" stroke="#6C8EAD" stroke-width="10"/>
<path d="M157 78.0616C157 122.414 191 154.244 205 154.244" stroke="#6C8EAD" stroke-width="10"/>
<path d="M200 221.033V149.026" stroke="#6C8EAD" stroke-width="10"/>
<line y1="-5" x2="73.0512" y2="-5" transform="matrix(-4.18857e-08 -1 -1 4.56167e-08 295 78.0616)" stroke="#6C8EAD" stroke-width="10"/>
<path d="M300 78.0616C300 122.414 266 154.244 252 154.244" stroke="#6C8EAD" stroke-width="10"/>
<path d="M257 221.033V149.026" stroke="#6C8EAD" stroke-width="10"/>
<line y1="-5" x2="73.0512" y2="-5" transform="matrix(-4.18857e-08 -1 -1 4.56167e-08 276 78.0616)" stroke="#6C8EAD" stroke-width="10"/>
<path d="M281 78.0616C281 109.891 255.5 136.503 233 136.503" stroke="#6C8EAD" stroke-width="10"/>
<line y1="-5" x2="89.7546" y2="-5" transform="matrix(0 -1 -1 0 233 221.039)" stroke="#6C8EAD" stroke-width="10"/>
<path d="M72.5 89C75.3678 89 78.1713 88.1496 80.5558 86.5563C82.9403 84.963 84.7988 82.6984 85.8963 80.0489C86.9937 77.3994 87.2809 74.4839 86.7214 71.6712C86.1619 68.8585 84.7809 66.2748 82.753 64.247C80.7252 62.2191 78.1415 60.8381 75.3288 60.2786C72.5161 59.7191 69.6006 60.0063 66.9511 61.1037C64.3016 62.2012 62.037 64.0597 60.4437 66.4442C58.8504 68.8287 58 71.6322 58 74.5" stroke="#F18F01" stroke-width="10"/>
<line x1="58" y1="73" x2="58" y2="219" stroke="#F18F01" stroke-width="10"/>
<path d="M72.5 107C78.9279 107 85.2114 105.065 90.556 101.438C95.9006 97.8124 100.066 92.6585 102.526 86.6286C104.986 80.5986 105.63 73.9634 104.376 67.562C103.121 61.1606 100.026 55.2806 95.481 50.6655C90.9358 46.0503 85.1448 42.9074 78.8404 41.6341C72.5361 40.3608 66.0014 41.0143 60.0628 43.512C54.1242 46.0097 49.0484 50.2394 45.4772 55.6662C41.9061 61.093 40 67.4732 40 74" stroke="#F18F01" stroke-width="10"/>
<line x1="40" y1="73" x2="40" y2="219" stroke="#F18F01" stroke-width="10"/>
<path d="M23 75C23 64.7154 25.9031 54.6617 31.3423 46.1104C36.7814 37.559 44.5122 30.894 53.5572 26.9583C62.6021 23.0225 72.5549 21.9928 82.157 23.9992C91.759 26.0056 100.579 30.9581 107.502 38.2305C114.424 45.5028 119.139 54.7683 121.049 64.8553C122.959 74.9423 121.979 85.3978 118.232 94.8996C114 105.633 102.5 116 102.5 116C102.5 116 124.5 127.5 124.5 161.5C124.5 195.5 124 220 124 220" stroke="#F18F01" stroke-width="10"/>
<line x1="23" y1="73" x2="23" y2="219" stroke="#F18F01" stroke-width="10"/>
<path d="M5 73.5549C5 59.996 9.0237 46.7416 16.5623 35.4678C24.1008 24.194 34.8157 15.4072 47.3518 10.2185C59.888 5.0297 73.6825 3.67209 86.9908 6.31729C100.299 8.9625 112.524 15.4917 122.118 25.0793C131.713 34.6668 138.247 46.8822 140.894 60.1805C143.542 73.4788 142.183 87.2629 136.99 99.7897C133.779 106.733 132.566 110.943 128.028 115.742C146.793 133.867 143.155 167 143.155 220" stroke="#F18F01" stroke-width="10"/>
<line x1="5" y1="73" x2="5" y2="219" stroke="#F18F01" stroke-width="10"/>
<path d="M72 125V125C90.7257 125 105.856 140.274 105.68 158.998L105.105 220" stroke="#F18F01" stroke-width="10"/>
<path d="M72 144V144C80.8222 144 87.9602 151.178 87.9114 160L87.5789 220" stroke="#F18F01" stroke-width="10"/>
</svg>
