<?xml version="1.0" encoding="UTF-8"?>
<svg width="1200pt" height="1200pt" version="1.1" viewBox="0 0 1200 1200" xmlns="http://www.w3.org/2000/svg">
 <g fill="#303338">
  <path d="m345.6 1009.2h432c86.398 0 156-69.602 156-156v-264c0-20.398-15.602-36-36-36-20.398 0-36 15.602-36 36v264c0 46.801-37.199 84-84 84h-432c-46.801 0-84-37.199-84-84v-432c0-46.801 37.199-84 84-84h264c20.398 0 36-15.602 36-36 0-20.398-15.602-36-36-36h-264c-86.398 0-156 69.602-156 156v432c0 86.402 69.598 156 156 156z"/>
  <path d="m1010.4 446.4v-219.6c0-2.3984 0-4.8008-1.1992-7.1992 0-1.1992 0-2.3984-1.1992-2.3984 0-1.1992-1.1992-2.3984-1.1992-3.6016 0-1.1992-1.1992-2.3984-2.3984-3.6016 0-1.1992-1.1992-2.3984-1.1992-2.3984-2.3984-3.6016-6-7.1992-9.6016-9.6016l-2.3984-1.1992c-2.4023-3.6016-4.8047-4.8008-7.2031-4.8008l-3.6016-1.1992c-2.3984 0-4.8008-1.1992-7.1992-1.1992h-219.6c-20.398 0-36 15.602-36 36 0 20.398 15.602 36 36 36h133.2l-330 331.2c-14.398 14.398-14.398 37.199 0 50.398 14.398 14.398 37.199 14.398 50.398 0l331.2-330v133.2c0 20.398 15.602 36 36 36 19.203 0 34.801-16.797 36-36z"/>
 </g>
</svg>
