<svg width="107" height="107" viewBox="0 0 107 107" fill="none" xmlns="http://www.w3.org/2000/svg">
  <path d="M80.3551 96.2285C80.0099 96.4455 79.9014 96.5934 80.2072 96.4257C80.4241 96.2975 80.7792 96.0312 80.72 96.0214C80.6904 96.0214 80.5228 96.12 80.3551 96.2285ZM79.6746 96.6723C79.4971 96.8104 79.4971 96.8202 79.714 96.7117C79.8324 96.6526 79.931 96.5835 79.931 96.5638C79.931 96.4849 79.8817 96.5046 79.6746 96.6723ZM79.1815 96.9682C79.004 97.1062 79.004 97.1161 79.2209 97.0076C79.3393 96.9484 79.4379 96.8794 79.4379 96.8597C79.4379 96.7808 79.3886 96.8005 79.1815 96.9682ZM78.6884 97.264C78.5108 97.4021 78.5108 97.412 78.7278 97.3035C78.8462 97.2443 78.9448 97.1753 78.9448 97.1555C78.9448 97.0766 78.8955 97.0964 78.6884 97.264ZM77.9388 97.6585C77.5641 97.8558 77.5838 97.9347 77.9586 97.7473C78.1262 97.6585 78.2544 97.5698 78.2544 97.55C78.2544 97.481 78.2446 97.4909 77.9388 97.6585Z" fill="#313339"/>
  <path d="M72.5 33H66V60.5H72.5V33Z" fill="#313339"/>
  <path d="M34.5 35.5C34.5 34.3954 35.3954 33.5 36.5 33.5H40C41.1046 33.5 42 34.3954 42 35.5V74C42 75.1046 41.1046 76 40 76H36.5C35.3954 76 34.5 75.1046 34.5 74V35.5Z" fill="#313339"/>
  <path d="M65.5 42H72V69.6916L65.5 60V42Z" fill="#313339"/>
  <path d="M36.0369 38.5857C35.3955 37.6664 35.6347 36.3995 36.5672 35.7774L39.2034 34.0187C40.1338 33.398 41.3923 33.6608 41.9964 34.602L80.6961 94.8859C81.2448 95.7406 81.0658 96.8708 80.2798 97.5141L79.9636 97.7728C79.0622 98.5106 77.7234 98.3249 77.0568 97.3696L36.0369 38.5857Z" fill="#313339"/>
  <path d="M65.5 34C65.5 32.8954 66.3954 32 67.5 32H70C71.1046 32 72 32.8954 72 34V45C72 46.1046 71.1046 47 70 47H67.5C66.3954 47 65.5 46.1046 65.5 45V34Z" fill="#313339"/>
  <path d="M105 53.5C105 81.9427 81.9427 105 53.5 105C25.0573 105 2 81.9427 2 53.5C2 25.0573 25.0573 2 53.5 2C81.9427 2 105 25.0573 105 53.5Z" stroke="#313339" stroke-width="4"/>
</svg>
