<svg id="svg" version="1.1" xmlns="http://www.w3.org/2000/svg" xmlns:xlink="http://www.w3.org/1999/xlink" width="400" height="400" viewBox="0, 0, 400,400"><g id="svgg"><path id="path0" d="M198.317 86.766 C 194.124 87.308,199.028 84.660,149.276 113.250 C 99.837 141.661,103.012 139.569,100.635 145.301 C 99.049 149.128,99.101 147.056,99.194 202.017 L 99.280 253.170 100.095 255.394 C 102.278 261.350,103.544 262.427,118.156 270.777 C 136.749 281.402,141.375 283.104,150.288 282.599 C 162.596 281.902,170.355 275.350,173.020 263.404 C 173.630 260.667,173.631 260.579,173.631 209.989 L 173.631 159.315 172.951 158.764 C 172.012 158.004,159.919 157.916,158.854 158.662 L 158.213 159.110 158.211 207.581 C 158.210 239.754,158.108 256.673,157.909 257.899 C 156.691 265.406,149.357 269.014,141.206 266.117 C 138.037 264.991,116.150 252.298,114.769 250.786 L 113.833 249.760 113.833 201.067 C 113.833 153.461,113.845 152.353,114.389 151.475 C 114.834 150.757,123.360 145.739,156.802 126.513 C 179.823 113.278,199.065 102.212,199.561 101.921 L 200.463 101.392 242.955 125.793 C 270.071 141.364,285.733 150.519,286.239 151.094 L 287.032 151.996 287.032 200.581 L 287.032 249.166 286.095 250.045 C 285.580 250.528,267.133 261.275,245.101 273.926 C 223.069 286.578,204.092 297.490,202.930 298.176 C 201.768 298.862,200.694 299.424,200.545 299.424 C 200.395 299.424,195.176 296.506,188.946 292.939 C 175.494 285.239,176.664 285.567,171.917 288.163 C 170.200 289.102,167.354 290.345,165.594 290.926 C 160.685 292.543,160.150 293.168,162.248 294.834 C 163.204 295.594,190.500 311.651,193.025 312.938 C 196.192 314.554,200.216 314.782,205.786 313.663 L 209.501 312.916 250.644 289.287 C 273.272 276.292,292.718 265.082,293.857 264.377 C 297.311 262.238,299.723 259.031,301.199 254.611 L 301.873 252.594 301.953 202.017 C 302.043 145.321,302.170 148.952,299.947 144.380 C 297.455 139.256,300.437 141.182,251.414 113.027 C 208.847 88.579,206.328 87.209,203.360 86.880 C 202.542 86.789,201.484 86.673,201.009 86.622 C 200.533 86.572,199.322 86.636,198.317 86.766 M214.409 155.351 C 193.353 157.675,182.343 168.406,183.898 185.089 C 185.190 198.937,194.204 204.642,219.741 207.775 C 245.344 210.916,250.707 213.282,250.385 221.293 C 250.019 230.397,240.882 234.379,222.190 233.580 C 204.996 232.846,198.841 229.093,197.097 218.282 C 196.542 214.845,196.885 214.986,189.094 214.986 C 181.059 214.986,181.391 214.823,181.450 218.724 C 181.733 237.707,197.514 248.286,225.504 248.257 C 252.358 248.229,266.779 238.089,266.676 219.308 C 266.590 203.640,257.652 197.130,231.268 193.521 C 204.417 189.848,199.616 187.888,200.067 180.786 C 200.566 172.934,208.825 169.276,224.784 169.841 C 239.557 170.363,245.310 173.772,247.833 183.500 C 248.703 186.854,248.428 186.745,256.012 186.734 C 264.027 186.722,263.867 186.797,263.588 183.177 C 262.507 169.117,253.361 159.647,237.824 156.503 C 231.806 155.285,220.187 154.713,214.409 155.351 " stroke="none" fill="#fbfbfb" fill-rule="evenodd"></path><path id="path1" d="M188.184 0.184 C 152.101 2.680,119.612 13.501,90.346 32.773 C 20.472 78.783,-13.306 162.198,4.658 244.378 C 21.763 322.623,86.102 384.247,165.156 398.101 C 176.428 400.076,175.598 400.035,201.904 399.924 L 225.793 399.824 230.548 399.040 C 319.314 384.409,384.409 319.314,399.040 230.548 L 399.824 225.793 399.924 201.904 C 400.035 175.598,400.076 176.428,398.101 165.156 C 383.324 80.834,314.972 14.443,230.151 2.020 C 219.132 0.407,198.203 -0.509,188.184 0.184 M204.442 86.887 C 207.415 87.517,206.764 87.157,252.298 113.343 C 300.161 140.868,298.076 139.496,300.552 145.101 C 302.071 148.540,302.008 146.127,302.013 201.020 C 302.018 257.130,302.136 253.315,300.262 257.342 C 297.812 262.604,300.948 260.568,251.883 288.756 L 209.675 313.005 206.494 313.681 C 197.061 315.687,197.554 315.844,178.674 304.825 C 157.569 292.507,158.264 293.196,164.774 291.052 C 167.317 290.214,173.071 287.556,174.488 286.565 C 176.031 285.485,185.180 289.966,199.575 298.852 L 200.446 299.390 243.173 274.831 C 275.323 256.351,286.039 250.060,286.463 249.415 C 287.018 248.574,287.028 247.735,287.030 200.356 L 287.032 152.153 286.095 151.181 C 285.518 150.582,269.134 141.008,243.382 126.221 C 220.405 113.028,201.383 102.094,201.112 101.925 C 200.458 101.517,204.728 99.132,157.205 126.454 C 123.880 145.613,114.995 150.841,114.481 151.590 L 113.833 152.535 113.833 200.777 C 113.833 253.960,113.690 249.940,115.634 251.389 C 117.543 252.813,138.302 264.791,140.122 265.519 C 147.521 268.480,154.100 266.630,156.885 260.807 L 157.781 258.934 157.925 209.016 C 158.062 161.588,158.095 159.073,158.584 158.584 C 159.049 158.119,159.754 158.069,165.886 158.069 L 172.673 158.069 173.230 158.757 C 173.777 159.432,173.786 160.408,173.709 210.774 L 173.631 262.104 172.873 264.845 C 169.660 276.455,162.137 282.224,149.679 282.630 C 140.225 282.939,137.024 281.752,117.926 270.857 C 103.124 262.412,101.765 261.192,99.666 254.467 L 98.991 252.305 98.991 201.009 C 98.991 152.257,99.017 149.620,99.516 147.862 C 100.557 144.195,102.723 140.779,105.397 138.588 C 106.469 137.711,189.324 89.913,192.751 88.196 C 195.962 86.587,200.581 86.070,204.442 86.887 M232.555 155.516 C 250.800 157.539,261.331 166.377,263.554 181.531 C 264.358 187.018,264.339 187.032,256.152 187.031 C 248.543 187.031,248.582 187.047,247.642 183.469 C 245.000 173.406,238.611 170.026,222.247 170.031 C 206.685 170.035,200.000 173.716,200.332 182.098 C 200.562 187.907,204.880 189.570,228.507 192.947 C 258.814 197.279,266.702 202.781,266.712 219.597 C 266.722 238.536,252.801 248.255,225.648 248.267 C 199.117 248.278,184.642 240.020,181.708 223.197 C 180.283 215.028,180.569 214.696,189.016 214.702 C 196.158 214.707,196.556 214.801,196.922 216.578 C 199.757 230.350,204.783 233.287,225.504 233.278 C 243.795 233.269,250.240 229.973,250.278 220.605 C 250.306 213.591,243.166 210.547,220.893 208.079 C 194.167 205.117,184.451 198.828,183.662 183.983 C 182.550 163.042,201.408 152.062,232.555 155.516 " stroke="none" fill="#7cbc44" fill-rule="evenodd"></path><path id="path2" d="M98.988 201.009 C 98.988 227.795,99.022 238.711,99.063 225.265 C 99.105 211.820,99.105 189.903,99.063 176.562 C 99.022 163.221,98.988 174.222,98.988 201.009 M158.066 208.357 C 158.066 235.065,158.100 245.991,158.141 232.637 C 158.183 219.283,158.183 197.432,158.141 184.078 C 158.100 170.724,158.066 181.650,158.066 208.357 M217.939 169.939 C 218.217 170.012,218.671 170.012,218.948 169.939 C 219.226 169.867,218.999 169.807,218.444 169.807 C 217.889 169.807,217.662 169.867,217.939 169.939 M225.292 169.944 C 225.650 170.013,226.169 170.011,226.444 169.939 C 226.720 169.867,226.427 169.810,225.793 169.813 C 225.159 169.817,224.933 169.876,225.292 169.944 M253.242 186.958 C 254.867 187.010,257.525 187.010,259.150 186.958 C 260.774 186.907,259.445 186.865,256.196 186.865 C 252.947 186.865,251.617 186.907,253.242 186.958 M261.095 203.890 C 261.633 204.445,262.138 204.899,262.217 204.899 C 262.296 204.899,261.921 204.445,261.383 203.890 C 260.846 203.336,260.341 202.882,260.262 202.882 C 260.182 202.882,260.557 203.336,261.095 203.890 M186.095 214.912 C 187.720 214.964,190.378 214.964,192.003 214.912 C 193.628 214.861,192.298 214.819,189.049 214.819 C 185.800 214.819,184.470 214.861,186.095 214.912 M223.715 233.643 C 224.792 233.699,226.478 233.699,227.462 233.642 C 228.446 233.586,227.565 233.541,225.504 233.541 C 223.444 233.542,222.639 233.588,223.715 233.643 M103.458 261.473 C 103.458 261.523,103.880 261.945,104.395 262.410 L 105.331 263.256 104.485 262.320 C 103.696 261.447,103.458 261.251,103.458 261.473 " stroke="none" fill="#bcdc9c" fill-rule="evenodd"></path><path id="path3" d="M190.328 164.914 L 189.481 165.850 190.418 165.004 C 190.933 164.538,191.354 164.117,191.354 164.067 C 191.354 163.844,191.117 164.041,190.328 164.914 M188.184 236.690 C 188.184 236.739,188.606 237.161,189.121 237.626 L 190.058 238.473 189.211 237.536 C 188.422 236.663,188.184 236.467,188.184 236.690 " stroke="none" fill="#acd186" fill-rule="evenodd"></path><path id="path4" d="M220.821 154.965 C 221.416 155.027,222.388 155.027,222.983 154.965 C 223.577 154.903,223.091 154.852,221.902 154.852 C 220.713 154.852,220.227 154.903,220.821 154.965 M162.592 158.140 C 164.287 158.191,167.140 158.191,168.932 158.140 C 170.724 158.090,169.337 158.048,165.850 158.048 C 162.363 158.048,160.897 158.089,162.592 158.140 M220.821 169.952 C 221.574 170.012,222.806 170.012,223.559 169.952 C 224.312 169.893,223.696 169.845,222.190 169.845 C 220.684 169.845,220.068 169.893,220.821 169.952 M200.078 181.556 C 200.078 182.269,200.135 182.561,200.203 182.205 C 200.272 181.848,200.272 181.264,200.203 180.908 C 200.135 180.551,200.078 180.843,200.078 181.556 M296.668 262.320 L 295.821 263.256 296.758 262.410 C 297.631 261.621,297.827 261.383,297.604 261.383 C 297.555 261.383,297.133 261.805,296.668 262.320 M146.186 267.066 C 146.624 267.132,147.272 267.130,147.626 267.062 C 147.981 266.993,147.622 266.939,146.830 266.941 C 146.037 266.943,145.747 266.999,146.186 267.066 M175.576 286.374 C 176.012 286.440,176.726 286.440,177.161 286.374 C 177.597 286.308,177.241 286.254,176.369 286.254 C 175.497 286.254,175.140 286.308,175.576 286.374 M199.207 314.616 C 199.643 314.682,200.357 314.682,200.793 314.616 C 201.228 314.550,200.872 314.496,200.000 314.496 C 199.128 314.496,198.772 314.550,199.207 314.616 " stroke="none" fill="#99cc69" fill-rule="evenodd"></path></g></svg>