<svg width="131" height="128" viewBox="0 0 131 128" fill="none" xmlns="http://www.w3.org/2000/svg">
<path d="M20 69.5L35.5 109.5M20 69.5L46 56.5M20 69.5L12.5 61.5M20 69.5L2.5 112.5M35.5 109.5L2.5 112.5M35.5 109.5L46 56.5M35.5 109.5L93 73M35.5 109.5L125 125.5M2.5 112.5L12.5 61.5M2.5 112.5L125 125.5M12.5 61.5L23 45L46.5 22L70.5 8.5M70.5 8.5L83 13M70.5 8.5L124 2.5M83 13L74.5 31M83 13L124 2.5M83 13L129 23.5M74.5 31L46 56.5M74.5 31L129 23.5M74.5 31L93 73M46 56.5L93 73M124 2.5L129 23.5M129 23.5L93 73M129 23.5L125 125.5M93 73L125 125.5" stroke="white" stroke-width="4"/>
</svg>
